<svg xmlns="http://www.w3.org/2000/svg" xmlns:xlink="http://www.w3.org/1999/xlink" width="1000" zoomAndPan="magnify" viewBox="0 0 750 749.999995" height="1000" preserveAspectRatio="xMidYMid meet" version="1.0"><defs><g/><clipPath id="ff4726db0f"><path d="M 24.21875 256.933594 L 151.71875 256.933594 L 151.71875 493.183594 L 24.21875 493.183594 Z M 24.21875 256.933594 " clip-rule="nonzero"/></clipPath></defs><g clip-path="url(#ff4726db0f)"><path fill="#123c33" d="M 117.566406 280.929688 C 122.171875 280.929688 125.878906 280.890625 129.578125 280.9375 C 145.144531 281.121094 151.660156 287.636719 151.808594 303.488281 C 151.933594 317.914062 151.839844 332.335938 151.839844 346.765625 C 151.835938 387.53125 151.878906 428.296875 151.808594 469.0625 C 151.773438 486.292969 145.144531 492.886719 127.84375 492.949219 C 100.875 493.046875 73.902344 493.085938 46.9375 492.976562 C 31.566406 492.914062 24.5 485.828125 24.476562 470.410156 C 24.382812 414.59375 24.371094 358.773438 24.460938 302.960938 C 24.488281 287.410156 31.261719 280.589844 47.136719 281.125 C 56.003906 281.425781 60.65625 279.863281 59.550781 269.554688 C 58.632812 260.988281 64.167969 257.101562 72.375 257.027344 C 81.78125 256.945312 91.1875 257.003906 100.597656 257.054688 C 113.871094 257.128906 116.605469 259.8125 116.960938 272.914062 C 117.023438 275.078125 117.28125 277.238281 117.566406 280.929688 Z M 138.019531 387.320312 C 138.019531 360.0625 137.796875 332.804688 138.160156 305.554688 C 138.265625 297.515625 135.621094 294.226562 127.414062 294.304688 C 101.097656 294.566406 74.78125 294.515625 48.464844 294.292969 C 40.726562 294.226562 38.175781 297.398438 38.203125 305.023438 C 38.421875 359.53125 38.394531 414.046875 38.199219 468.558594 C 38.171875 476.054688 40.449219 479.285156 48.425781 479.183594 C 74.742188 478.847656 101.058594 478.816406 127.367188 479.214844 C 135.75 479.34375 138.25 476.082031 138.160156 468.140625 C 137.859375 441.203125 138.042969 414.257812 138.019531 387.320312 Z M 138.019531 387.320312 " fill-opacity="1" fill-rule="nonzero"/></g><path fill="#123c33" d="M 84.121094 389.851562 C 72.132812 389.851562 61.378906 389.851562 47.894531 389.851562 C 66.015625 366.878906 82.507812 345.957031 99.007812 325.03125 C 100.105469 325.589844 101.203125 326.144531 102.304688 326.699219 C 99.007812 340.660156 95.707031 354.621094 92.105469 369.859375 C 104.023438 369.859375 114.792969 369.859375 128.195312 369.859375 C 108.128906 396.503906 89.558594 421.160156 70.992188 445.816406 C 69.71875 445.28125 68.445312 444.746094 67.175781 444.203125 C 72.679688 426.53125 78.1875 408.867188 84.121094 389.851562 Z M 84.121094 389.851562 " fill-opacity="1" fill-rule="nonzero"/><g fill="#123c33" fill-opacity="1"><g transform="translate(169.44017, 375.546887)"><g><path d="M 69.84375 -42.578125 C 74.519531 -41.097656 78.179688 -38.625 80.828125 -35.15625 C 83.484375 -31.6875 84.8125 -27.414062 84.8125 -22.34375 C 84.8125 -15.164062 82.019531 -9.644531 76.4375 -5.78125 C 70.863281 -1.925781 62.738281 0 52.0625 0 L 9.703125 0 L 9.703125 -81.890625 L 49.71875 -81.890625 C 59.695312 -81.890625 67.359375 -79.976562 72.703125 -76.15625 C 78.046875 -72.332031 80.71875 -67.144531 80.71875 -60.59375 C 80.71875 -56.613281 79.757812 -53.0625 77.84375 -49.9375 C 75.9375 -46.820312 73.269531 -44.367188 69.84375 -42.578125 Z M 28.546875 -67.609375 L 28.546875 -48.3125 L 47.375 -48.3125 C 52.050781 -48.3125 55.597656 -49.128906 58.015625 -50.765625 C 60.441406 -52.410156 61.65625 -54.832031 61.65625 -58.03125 C 61.65625 -61.226562 60.441406 -63.625 58.015625 -65.21875 C 55.597656 -66.8125 52.050781 -67.609375 47.375 -67.609375 Z M 50.65625 -14.265625 C 55.644531 -14.265625 59.40625 -15.082031 61.9375 -16.71875 C 64.476562 -18.363281 65.75 -20.898438 65.75 -24.328125 C 65.75 -31.117188 60.71875 -34.515625 50.65625 -34.515625 L 28.546875 -34.515625 L 28.546875 -14.265625 Z M 50.65625 -14.265625 "/></g></g></g><g fill="#123c33" fill-opacity="1"><g transform="translate(258.927185, 375.546887)"><g><path d="M 63.640625 -17.546875 L 25.625 -17.546875 L 18.359375 0 L -1.046875 0 L 35.453125 -81.890625 L 54.15625 -81.890625 L 90.78125 0 L 70.890625 0 Z M 57.671875 -31.9375 L 44.6875 -63.28125 L 31.703125 -31.9375 Z M 57.671875 -31.9375 "/></g></g></g><g fill="#123c33" fill-opacity="1"><g transform="translate(344.436702, 375.546887)"><g><path d="M 26.671875 -66.453125 L 0.46875 -66.453125 L 0.46875 -81.890625 L 71.828125 -81.890625 L 71.828125 -66.453125 L 45.625 -66.453125 L 45.625 0 L 26.671875 0 Z M 26.671875 -66.453125 "/></g></g></g><g fill="#123c33" fill-opacity="1"><g transform="translate(417.898029, 375.546887)"><g><path d="M 26.671875 -66.453125 L 0.46875 -66.453125 L 0.46875 -81.890625 L 71.828125 -81.890625 L 71.828125 -66.453125 L 45.625 -66.453125 L 45.625 0 L 26.671875 0 Z M 26.671875 -66.453125 "/></g></g></g><g fill="#123c33" fill-opacity="1"><g transform="translate(490.189506, 375.546887)"><g><path d="M 73.109375 -15.203125 L 73.109375 0 L 9.703125 0 L 9.703125 -81.890625 L 71.59375 -81.890625 L 71.59375 -66.6875 L 28.546875 -66.6875 L 28.546875 -48.90625 L 66.5625 -48.90625 L 66.5625 -34.15625 L 28.546875 -34.15625 L 28.546875 -15.203125 Z M 73.109375 -15.203125 "/></g></g></g><g fill="#123c33" fill-opacity="1"><g transform="translate(568.680752, 375.546887)"><g><path d="M 61.890625 0 L 46.09375 -22.8125 L 28.65625 -22.8125 L 28.65625 0 L 9.703125 0 L 9.703125 -81.890625 L 45.15625 -81.890625 C 52.40625 -81.890625 58.703125 -80.679688 64.046875 -78.265625 C 69.390625 -75.847656 73.503906 -72.414062 76.390625 -67.96875 C 79.273438 -63.519531 80.71875 -58.253906 80.71875 -52.171875 C 80.71875 -46.085938 79.253906 -40.84375 76.328125 -36.4375 C 73.410156 -32.03125 69.257812 -28.660156 63.875 -26.328125 L 82.234375 0 Z M 61.53125 -52.171875 C 61.53125 -56.773438 60.046875 -60.304688 57.078125 -62.765625 C 54.117188 -65.222656 49.796875 -66.453125 44.109375 -66.453125 L 28.65625 -66.453125 L 28.65625 -37.90625 L 44.109375 -37.90625 C 49.796875 -37.90625 54.117188 -39.148438 57.078125 -41.640625 C 60.046875 -44.140625 61.53125 -47.648438 61.53125 -52.171875 Z M 61.53125 -52.171875 "/></g></g></g><g fill="#123c33" fill-opacity="1"><g transform="translate(653.488609, 375.546887)"><g><path d="M 49.015625 -29.015625 L 49.015625 0 L 30.0625 0 L 30.0625 -29.25 L -1.640625 -81.890625 L 18.484375 -81.890625 L 40.359375 -45.5 L 62.234375 -81.890625 L 80.84375 -81.890625 Z M 49.015625 -29.015625 "/></g></g></g><g fill="#123c33" fill-opacity="1"><g transform="translate(168.655014, 477.546882)"><g><path d="M 38.59375 -69.984375 C 44.789062 -69.984375 50.171875 -68.953125 54.734375 -66.890625 C 59.304688 -64.828125 62.820312 -61.894531 65.28125 -58.09375 C 67.75 -54.289062 68.984375 -49.789062 68.984375 -44.59375 C 68.984375 -39.457031 67.75 -34.972656 65.28125 -31.140625 C 62.820312 -27.304688 59.304688 -24.375 54.734375 -22.34375 C 50.171875 -20.3125 44.789062 -19.296875 38.59375 -19.296875 L 24.5 -19.296875 L 24.5 0 L 8.296875 0 L 8.296875 -69.984375 Z M 37.6875 -32.5 C 42.5625 -32.5 46.265625 -33.546875 48.796875 -35.640625 C 51.328125 -37.742188 52.59375 -40.726562 52.59375 -44.59375 C 52.59375 -48.519531 51.328125 -51.535156 48.796875 -53.640625 C 46.265625 -55.742188 42.5625 -56.796875 37.6875 -56.796875 L 24.5 -56.796875 L 24.5 -32.5 Z M 37.6875 -32.5 "/></g></g></g><g fill="#123c33" fill-opacity="1"><g transform="translate(237.343995, 477.546882)"><g><path d="M 54.390625 -15 L 21.890625 -15 L 15.703125 0 L -0.90625 0 L 30.296875 -69.984375 L 46.296875 -69.984375 L 77.59375 0 L 60.59375 0 Z M 49.296875 -27.296875 L 38.1875 -54.09375 L 27.09375 -27.296875 Z M 49.296875 -27.296875 "/></g></g></g><g fill="#123c33" fill-opacity="1"><g transform="translate(313.931996, 477.546882)"><g><path d="M 52.890625 0 L 39.390625 -19.5 L 24.5 -19.5 L 24.5 0 L 8.296875 0 L 8.296875 -69.984375 L 38.59375 -69.984375 C 44.789062 -69.984375 50.171875 -68.953125 54.734375 -66.890625 C 59.304688 -64.828125 62.820312 -61.894531 65.28125 -58.09375 C 67.75 -54.289062 68.984375 -49.789062 68.984375 -44.59375 C 68.984375 -39.394531 67.734375 -34.910156 65.234375 -31.140625 C 62.734375 -27.378906 59.1875 -24.5 54.59375 -22.5 L 70.28125 0 Z M 52.59375 -44.59375 C 52.59375 -48.519531 51.328125 -51.535156 48.796875 -53.640625 C 46.265625 -55.742188 42.5625 -56.796875 37.6875 -56.796875 L 24.5 -56.796875 L 24.5 -32.390625 L 37.6875 -32.390625 C 42.5625 -32.390625 46.265625 -33.457031 48.796875 -35.59375 C 51.328125 -37.726562 52.59375 -40.726562 52.59375 -44.59375 Z M 52.59375 -44.59375 "/></g></g></g><g fill="#123c33" fill-opacity="1"><g transform="translate(386.420598, 477.546882)"><g><path d="M 22.796875 -56.796875 L 0.40625 -56.796875 L 0.40625 -69.984375 L 61.390625 -69.984375 L 61.390625 -56.796875 L 39 -56.796875 L 39 0 L 22.796875 0 Z M 22.796875 -56.796875 "/></g></g></g><g fill="#123c33" fill-opacity="1"><g transform="translate(448.210909, 477.546882)"><g><path d="M 72.484375 -69.984375 L 72.484375 0 L 59.1875 0 L 24.296875 -42.5 L 24.296875 0 L 8.296875 0 L 8.296875 -69.984375 L 21.703125 -69.984375 L 56.484375 -27.5 L 56.484375 -69.984375 Z M 72.484375 -69.984375 "/></g></g></g><g fill="#123c33" fill-opacity="1"><g transform="translate(528.998274, 477.546882)"><g><path d="M 62.484375 -13 L 62.484375 0 L 8.296875 0 L 8.296875 -69.984375 L 61.1875 -69.984375 L 61.1875 -56.984375 L 24.390625 -56.984375 L 24.390625 -41.796875 L 56.890625 -41.796875 L 56.890625 -29.203125 L 24.390625 -29.203125 L 24.390625 -13 Z M 62.484375 -13 "/></g></g></g><g fill="#123c33" fill-opacity="1"><g transform="translate(596.087748, 477.546882)"><g><path d="M 52.890625 0 L 39.390625 -19.5 L 24.5 -19.5 L 24.5 0 L 8.296875 0 L 8.296875 -69.984375 L 38.59375 -69.984375 C 44.789062 -69.984375 50.171875 -68.953125 54.734375 -66.890625 C 59.304688 -64.828125 62.820312 -61.894531 65.28125 -58.09375 C 67.75 -54.289062 68.984375 -49.789062 68.984375 -44.59375 C 68.984375 -39.394531 67.734375 -34.910156 65.234375 -31.140625 C 62.734375 -27.378906 59.1875 -24.5 54.59375 -22.5 L 70.28125 0 Z M 52.59375 -44.59375 C 52.59375 -48.519531 51.328125 -51.535156 48.796875 -53.640625 C 46.265625 -55.742188 42.5625 -56.796875 37.6875 -56.796875 L 24.5 -56.796875 L 24.5 -32.390625 L 37.6875 -32.390625 C 42.5625 -32.390625 46.265625 -33.457031 48.796875 -35.59375 C 51.328125 -37.726562 52.59375 -40.726562 52.59375 -44.59375 Z M 52.59375 -44.59375 "/></g></g></g><g fill="#123c33" fill-opacity="1"><g transform="translate(669.576255, 477.546882)"><g><path d="M 31.296875 1.203125 C 25.765625 1.203125 20.414062 0.453125 15.25 -1.046875 C 10.082031 -2.546875 5.929688 -4.5 2.796875 -6.90625 L 8.296875 -19.09375 C 11.296875 -16.894531 14.863281 -15.128906 19 -13.796875 C 23.132812 -12.460938 27.265625 -11.796875 31.390625 -11.796875 C 35.992188 -11.796875 39.394531 -12.476562 41.59375 -13.84375 C 43.789062 -15.207031 44.890625 -17.023438 44.890625 -19.296875 C 44.890625 -20.960938 44.238281 -22.34375 42.9375 -23.4375 C 41.644531 -24.539062 39.976562 -25.425781 37.9375 -26.09375 C 35.90625 -26.757812 33.160156 -27.492188 29.703125 -28.296875 C 24.367188 -29.554688 20 -30.820312 16.59375 -32.09375 C 13.195312 -33.363281 10.28125 -35.394531 7.84375 -38.1875 C 5.414062 -40.988281 4.203125 -44.722656 4.203125 -49.390625 C 4.203125 -53.453125 5.300781 -57.132812 7.5 -60.4375 C 9.695312 -63.738281 13.007812 -66.351562 17.4375 -68.28125 C 21.875 -70.21875 27.289062 -71.1875 33.6875 -71.1875 C 38.15625 -71.1875 42.519531 -70.648438 46.78125 -69.578125 C 51.050781 -68.515625 54.785156 -66.984375 57.984375 -64.984375 L 52.984375 -52.6875 C 46.523438 -56.351562 40.0625 -58.1875 33.59375 -58.1875 C 29.0625 -58.1875 25.710938 -57.453125 23.546875 -55.984375 C 21.378906 -54.523438 20.296875 -52.59375 20.296875 -50.1875 C 20.296875 -47.789062 21.546875 -46.007812 24.046875 -44.84375 C 26.546875 -43.675781 30.363281 -42.523438 35.5 -41.390625 C 40.832031 -40.128906 45.195312 -38.863281 48.59375 -37.59375 C 51.988281 -36.320312 54.898438 -34.320312 57.328125 -31.59375 C 59.765625 -28.863281 60.984375 -25.164062 60.984375 -20.5 C 60.984375 -16.5 59.867188 -12.847656 57.640625 -9.546875 C 55.410156 -6.242188 52.0625 -3.625 47.59375 -1.6875 C 43.125 0.238281 37.691406 1.203125 31.296875 1.203125 Z M 31.296875 1.203125 "/></g></g></g></svg>