<svg xmlns="http://www.w3.org/2000/svg" xmlns:xlink="http://www.w3.org/1999/xlink" width="1000" zoomAndPan="magnify" viewBox="0 0 750 749.999995" height="1000" preserveAspectRatio="xMidYMid meet" version="1.0"><defs><g/><clipPath id="6d745a57ce"><path d="M 264.480469 45 L 485.730469 45 L 485.730469 453.695312 L 264.480469 453.695312 Z M 264.480469 45 " clip-rule="nonzero"/></clipPath></defs><g clip-path="url(#6d745a57ce)"><path fill="#123c33" d="M 425.914062 86.449219 C 433.886719 86.449219 440.292969 86.378906 446.691406 86.457031 C 473.613281 86.777344 484.886719 98.046875 485.136719 125.460938 C 485.359375 150.40625 485.195312 175.351562 485.195312 200.304688 C 485.183594 270.804688 485.261719 341.304688 485.136719 411.804688 C 485.078125 441.605469 473.613281 453.011719 443.691406 453.117188 C 397.054688 453.289062 350.40625 453.359375 303.769531 453.164062 C 277.183594 453.058594 264.96875 440.804688 264.929688 414.140625 C 264.765625 317.605469 264.746094 221.070312 264.902344 124.546875 C 264.949219 97.652344 276.664062 85.859375 304.117188 86.785156 C 319.449219 87.308594 327.5 84.605469 325.589844 66.773438 C 323.996094 51.960938 333.570312 45.234375 347.761719 45.109375 C 364.03125 44.964844 380.300781 45.070312 396.570312 45.15625 C 419.527344 45.28125 424.257812 49.925781 424.875 72.582031 C 424.980469 76.324219 425.421875 80.058594 425.914062 86.449219 Z M 461.292969 270.4375 C 461.292969 223.300781 460.90625 176.160156 461.53125 129.03125 C 461.714844 115.125 457.140625 109.441406 442.949219 109.578125 C 397.441406 110.03125 351.921875 109.945312 306.414062 109.558594 C 293.03125 109.441406 288.621094 114.925781 288.667969 128.117188 C 289.042969 222.382812 288.996094 316.660156 288.660156 410.9375 C 288.609375 423.898438 292.546875 429.484375 306.347656 429.3125 C 351.855469 428.730469 397.371094 428.675781 442.871094 429.367188 C 457.363281 429.589844 461.6875 423.945312 461.53125 410.214844 C 461.011719 363.625 461.332031 317.027344 461.292969 270.4375 Z M 461.292969 270.4375 " fill-opacity="1" fill-rule="nonzero"/></g><path fill="#123c33" d="M 368.074219 274.820312 C 347.347656 274.820312 328.742188 274.820312 305.429688 274.820312 C 336.761719 235.09375 365.285156 198.90625 393.820312 162.71875 C 395.722656 163.683594 397.625 164.640625 399.523438 165.605469 C 393.820312 189.746094 388.117188 213.890625 381.882812 240.246094 C 402.496094 240.246094 421.121094 240.246094 444.296875 240.246094 C 409.597656 286.320312 377.484375 328.964844 345.371094 371.605469 C 343.167969 370.679688 340.96875 369.753906 338.769531 368.816406 C 348.292969 338.257812 357.816406 307.707031 368.074219 274.820312 Z M 368.074219 274.820312 " fill-opacity="1" fill-rule="nonzero"/><g fill="#123c33" fill-opacity="1"><g transform="translate(38.085938, 587.327463)"><g><path d="M 83.578125 -50.953125 C 89.171875 -49.179688 93.550781 -46.21875 96.71875 -42.0625 C 99.894531 -37.914062 101.484375 -32.804688 101.484375 -26.734375 C 101.484375 -18.148438 98.144531 -11.546875 91.46875 -6.921875 C 84.800781 -2.304688 75.078125 0 62.296875 0 L 11.625 0 L 11.625 -97.984375 L 59.5 -97.984375 C 71.4375 -97.984375 80.601562 -95.695312 87 -91.125 C 93.394531 -86.550781 96.59375 -80.347656 96.59375 -72.515625 C 96.59375 -67.753906 95.445312 -63.503906 93.15625 -59.765625 C 90.875 -56.035156 87.679688 -53.097656 83.578125 -50.953125 Z M 34.15625 -80.90625 L 34.15625 -57.8125 L 56.6875 -57.8125 C 62.289062 -57.8125 66.535156 -58.789062 69.421875 -60.75 C 72.316406 -62.707031 73.765625 -65.601562 73.765625 -69.4375 C 73.765625 -73.257812 72.316406 -76.125 69.421875 -78.03125 C 66.535156 -79.945312 62.289062 -80.90625 56.6875 -80.90625 Z M 60.609375 -17.078125 C 66.585938 -17.078125 71.09375 -18.054688 74.125 -20.015625 C 77.15625 -21.972656 78.671875 -25.003906 78.671875 -29.109375 C 78.671875 -37.234375 72.648438 -41.296875 60.609375 -41.296875 L 34.15625 -41.296875 L 34.15625 -17.078125 Z M 60.609375 -17.078125 "/></g></g></g><g fill="#123c33" fill-opacity="1"><g transform="translate(145.162028, 587.327463)"><g><path d="M 76.15625 -21 L 30.65625 -21 L 21.984375 0 L -1.265625 0 L 42.421875 -97.984375 L 64.8125 -97.984375 L 108.625 0 L 84.828125 0 Z M 69.015625 -38.21875 L 53.46875 -75.734375 L 37.9375 -38.21875 Z M 69.015625 -38.21875 "/></g></g></g><g fill="#123c33" fill-opacity="1"><g transform="translate(247.478796, 587.327463)"><g><path d="M 31.921875 -79.515625 L 0.5625 -79.515625 L 0.5625 -97.984375 L 85.953125 -97.984375 L 85.953125 -79.515625 L 54.59375 -79.515625 L 54.59375 0 L 31.921875 0 Z M 31.921875 -79.515625 "/></g></g></g><g fill="#123c33" fill-opacity="1"><g transform="translate(335.379281, 587.327463)"><g><path d="M 31.921875 -79.515625 L 0.5625 -79.515625 L 0.5625 -97.984375 L 85.953125 -97.984375 L 85.953125 -79.515625 L 54.59375 -79.515625 L 54.59375 0 L 31.921875 0 Z M 31.921875 -79.515625 "/></g></g></g><g fill="#123c33" fill-opacity="1"><g transform="translate(421.879971, 587.327463)"><g><path d="M 87.484375 -18.203125 L 87.484375 0 L 11.625 0 L 11.625 -97.984375 L 85.671875 -97.984375 L 85.671875 -79.796875 L 34.15625 -79.796875 L 34.15625 -58.515625 L 79.65625 -58.515625 L 79.65625 -40.875 L 34.15625 -40.875 L 34.15625 -18.203125 Z M 87.484375 -18.203125 "/></g></g></g><g fill="#123c33" fill-opacity="1"><g transform="translate(515.799019, 587.327463)"><g><path d="M 74.046875 0 L 55.15625 -27.296875 L 34.296875 -27.296875 L 34.296875 0 L 11.625 0 L 11.625 -97.984375 L 54.03125 -97.984375 C 62.707031 -97.984375 70.242188 -96.535156 76.640625 -93.640625 C 83.035156 -90.753906 87.957031 -86.648438 91.40625 -81.328125 C 94.863281 -76.015625 96.59375 -69.71875 96.59375 -62.4375 C 96.59375 -55.15625 94.84375 -48.878906 91.34375 -43.609375 C 87.84375 -38.335938 82.875 -34.300781 76.4375 -31.5 L 98.40625 0 Z M 73.625 -62.4375 C 73.625 -67.9375 71.851562 -72.15625 68.3125 -75.09375 C 64.769531 -78.039062 59.59375 -79.515625 52.78125 -79.515625 L 34.296875 -79.515625 L 34.296875 -45.359375 L 52.78125 -45.359375 C 59.59375 -45.359375 64.769531 -46.847656 68.3125 -49.828125 C 71.851562 -52.816406 73.625 -57.019531 73.625 -62.4375 Z M 73.625 -62.4375 "/></g></g></g><g fill="#123c33" fill-opacity="1"><g transform="translate(617.276248, 587.327463)"><g><path d="M 58.65625 -34.71875 L 58.65625 0 L 35.96875 0 L 35.96875 -35 L -1.953125 -97.984375 L 22.125 -97.984375 L 48.296875 -54.453125 L 74.46875 -97.984375 L 96.734375 -97.984375 Z M 58.65625 -34.71875 "/></g></g></g><g fill="#123c33" fill-opacity="1"><g transform="translate(92.636717, 691.577458)"><g><path d="M 38.59375 -69.984375 C 44.789062 -69.984375 50.171875 -68.953125 54.734375 -66.890625 C 59.304688 -64.828125 62.820312 -61.894531 65.28125 -58.09375 C 67.75 -54.289062 68.984375 -49.789062 68.984375 -44.59375 C 68.984375 -39.457031 67.75 -34.972656 65.28125 -31.140625 C 62.820312 -27.304688 59.304688 -24.375 54.734375 -22.34375 C 50.171875 -20.3125 44.789062 -19.296875 38.59375 -19.296875 L 24.5 -19.296875 L 24.5 0 L 8.296875 0 L 8.296875 -69.984375 Z M 37.6875 -32.5 C 42.5625 -32.5 46.265625 -33.546875 48.796875 -35.640625 C 51.328125 -37.742188 52.59375 -40.726562 52.59375 -44.59375 C 52.59375 -48.519531 51.328125 -51.535156 48.796875 -53.640625 C 46.265625 -55.742188 42.5625 -56.796875 37.6875 -56.796875 L 24.5 -56.796875 L 24.5 -32.5 Z M 37.6875 -32.5 "/></g></g></g><g fill="#123c33" fill-opacity="1"><g transform="translate(161.325698, 691.577458)"><g><path d="M 54.390625 -15 L 21.890625 -15 L 15.703125 0 L -0.90625 0 L 30.296875 -69.984375 L 46.296875 -69.984375 L 77.59375 0 L 60.59375 0 Z M 49.296875 -27.296875 L 38.1875 -54.09375 L 27.09375 -27.296875 Z M 49.296875 -27.296875 "/></g></g></g><g fill="#123c33" fill-opacity="1"><g transform="translate(237.913699, 691.577458)"><g><path d="M 52.890625 0 L 39.390625 -19.5 L 24.5 -19.5 L 24.5 0 L 8.296875 0 L 8.296875 -69.984375 L 38.59375 -69.984375 C 44.789062 -69.984375 50.171875 -68.953125 54.734375 -66.890625 C 59.304688 -64.828125 62.820312 -61.894531 65.28125 -58.09375 C 67.75 -54.289062 68.984375 -49.789062 68.984375 -44.59375 C 68.984375 -39.394531 67.734375 -34.910156 65.234375 -31.140625 C 62.734375 -27.378906 59.1875 -24.5 54.59375 -22.5 L 70.28125 0 Z M 52.59375 -44.59375 C 52.59375 -48.519531 51.328125 -51.535156 48.796875 -53.640625 C 46.265625 -55.742188 42.5625 -56.796875 37.6875 -56.796875 L 24.5 -56.796875 L 24.5 -32.390625 L 37.6875 -32.390625 C 42.5625 -32.390625 46.265625 -33.457031 48.796875 -35.59375 C 51.328125 -37.726562 52.59375 -40.726562 52.59375 -44.59375 Z M 52.59375 -44.59375 "/></g></g></g><g fill="#123c33" fill-opacity="1"><g transform="translate(310.402301, 691.577458)"><g><path d="M 22.796875 -56.796875 L 0.40625 -56.796875 L 0.40625 -69.984375 L 61.390625 -69.984375 L 61.390625 -56.796875 L 39 -56.796875 L 39 0 L 22.796875 0 Z M 22.796875 -56.796875 "/></g></g></g><g fill="#123c33" fill-opacity="1"><g transform="translate(372.192612, 691.577458)"><g><path d="M 72.484375 -69.984375 L 72.484375 0 L 59.1875 0 L 24.296875 -42.5 L 24.296875 0 L 8.296875 0 L 8.296875 -69.984375 L 21.703125 -69.984375 L 56.484375 -27.5 L 56.484375 -69.984375 Z M 72.484375 -69.984375 "/></g></g></g><g fill="#123c33" fill-opacity="1"><g transform="translate(452.979977, 691.577458)"><g><path d="M 62.484375 -13 L 62.484375 0 L 8.296875 0 L 8.296875 -69.984375 L 61.1875 -69.984375 L 61.1875 -56.984375 L 24.390625 -56.984375 L 24.390625 -41.796875 L 56.890625 -41.796875 L 56.890625 -29.203125 L 24.390625 -29.203125 L 24.390625 -13 Z M 62.484375 -13 "/></g></g></g><g fill="#123c33" fill-opacity="1"><g transform="translate(520.069451, 691.577458)"><g><path d="M 52.890625 0 L 39.390625 -19.5 L 24.5 -19.5 L 24.5 0 L 8.296875 0 L 8.296875 -69.984375 L 38.59375 -69.984375 C 44.789062 -69.984375 50.171875 -68.953125 54.734375 -66.890625 C 59.304688 -64.828125 62.820312 -61.894531 65.28125 -58.09375 C 67.75 -54.289062 68.984375 -49.789062 68.984375 -44.59375 C 68.984375 -39.394531 67.734375 -34.910156 65.234375 -31.140625 C 62.734375 -27.378906 59.1875 -24.5 54.59375 -22.5 L 70.28125 0 Z M 52.59375 -44.59375 C 52.59375 -48.519531 51.328125 -51.535156 48.796875 -53.640625 C 46.265625 -55.742188 42.5625 -56.796875 37.6875 -56.796875 L 24.5 -56.796875 L 24.5 -32.390625 L 37.6875 -32.390625 C 42.5625 -32.390625 46.265625 -33.457031 48.796875 -35.59375 C 51.328125 -37.726562 52.59375 -40.726562 52.59375 -44.59375 Z M 52.59375 -44.59375 "/></g></g></g><g fill="#123c33" fill-opacity="1"><g transform="translate(593.557957, 691.577458)"><g><path d="M 31.296875 1.203125 C 25.765625 1.203125 20.414062 0.453125 15.25 -1.046875 C 10.082031 -2.546875 5.929688 -4.5 2.796875 -6.90625 L 8.296875 -19.09375 C 11.296875 -16.894531 14.863281 -15.128906 19 -13.796875 C 23.132812 -12.460938 27.265625 -11.796875 31.390625 -11.796875 C 35.992188 -11.796875 39.394531 -12.476562 41.59375 -13.84375 C 43.789062 -15.207031 44.890625 -17.023438 44.890625 -19.296875 C 44.890625 -20.960938 44.238281 -22.34375 42.9375 -23.4375 C 41.644531 -24.539062 39.976562 -25.425781 37.9375 -26.09375 C 35.90625 -26.757812 33.160156 -27.492188 29.703125 -28.296875 C 24.367188 -29.554688 20 -30.820312 16.59375 -32.09375 C 13.195312 -33.363281 10.28125 -35.394531 7.84375 -38.1875 C 5.414062 -40.988281 4.203125 -44.722656 4.203125 -49.390625 C 4.203125 -53.453125 5.300781 -57.132812 7.5 -60.4375 C 9.695312 -63.738281 13.007812 -66.351562 17.4375 -68.28125 C 21.875 -70.21875 27.289062 -71.1875 33.6875 -71.1875 C 38.15625 -71.1875 42.519531 -70.648438 46.78125 -69.578125 C 51.050781 -68.515625 54.785156 -66.984375 57.984375 -64.984375 L 52.984375 -52.6875 C 46.523438 -56.351562 40.0625 -58.1875 33.59375 -58.1875 C 29.0625 -58.1875 25.710938 -57.453125 23.546875 -55.984375 C 21.378906 -54.523438 20.296875 -52.59375 20.296875 -50.1875 C 20.296875 -47.789062 21.546875 -46.007812 24.046875 -44.84375 C 26.546875 -43.675781 30.363281 -42.523438 35.5 -41.390625 C 40.832031 -40.128906 45.195312 -38.863281 48.59375 -37.59375 C 51.988281 -36.320312 54.898438 -34.320312 57.328125 -31.59375 C 59.765625 -28.863281 60.984375 -25.164062 60.984375 -20.5 C 60.984375 -16.5 59.867188 -12.847656 57.640625 -9.546875 C 55.410156 -6.242188 52.0625 -3.625 47.59375 -1.6875 C 43.125 0.238281 37.691406 1.203125 31.296875 1.203125 Z M 31.296875 1.203125 "/></g></g></g></svg>